PathFileType	4	(X/Y/Z)	Patient4_TMGait_0pt5_02_left_05.trc.trc
DataRate	CameraRate	NumFrames	NumMarkers	Units	OrigDataRate	OrigDataStartFrame	OrigNumFrames
74.468085106383	74.468085106383	4	33	mm	74.468085106383	53	       141
Frame#	Time	Sacral			L.Shoulder			Chest			R.Shoulder			Neck			R.ASIS			L.ASIS			R.Thigh.Superior			R.Thigh.Lateral			R.Thigh.Inferior			R.Patella			L.Thigh.Superior			L.Thigh.Lateral			L.Thigh.Inferior			L.Patella			L.Shank.Superior			L.Shank.Lateral			L.Shank.Inferior			R.Shank.Superior			R.Shank.Lateral			R.Shank.Inferior			R.Heel			R.Midfoot.Superior			R.Midfoot.Lateral			R.Toe			L.Heel			L.Midfoot.Lateral			L.Midfoot.Superior			L.Toe			L.Elbow			L.Wrist			R.Elbow			R.Wrist			
		X1	Y1	Z1	X2	Y2	Z2	X3	Y3	Z3	X4	Y4	Z4	X5	Y5	Z5	X6	Y6	Z6	X7	Y7	Z7	X8	Y8	Z8	X9	Y9	Z9	X10	Y10	Z10	X11	Y11	Z11	X12	Y12	Z12	X13	Y13	Z13	X14	Y14	Z14	X15	Y15	Z15	X16	Y16	Z16	X17	Y17	Z17	X18	Y18	Z18	X19	Y19	Z19	X20	Y20	Z20	X21	Y21	Z21	X22	Y22	Z22	X23	Y23	Z23	X24	Y24	Z24	X25	Y25	Z25	X26	Y26	Z26	X27	Y27	Z27	X28	Y28	Z28	X29	Y29	Z29	X30	Y30	Z30	X31	Y31	Z31	X32	Y32	Z32	X33	Y33	Z33	

53	6.448285714286	539.377763054101	1015.293473955024	442.905788121439	725.942908957623	1431.991845721195	244.895659353001	822.824513964426	1370.661103309874	412.803029945835	734.253750339580	1455.528811429328	580.238425312026	720.691999780009	1500.602969077090	392.331068773615	761.914153949594	953.865086877028	567.441002384513	757.151914427334	961.607106261852	293.826261205966	840.007730740782	779.971864237949	550.735967582972	793.181138371624	661.172727438254	624.915514989723	886.692676545898	617.733358067647	552.811056927342	902.777387463254	505.890525243141	578.412579752825	799.242646610829	752.503488558301	321.166298774260	706.828711132288	638.285653435568	268.563862029343	793.037329556262	560.742149247163	328.936644303722	792.143600729123	491.815936067654	339.880444224546	768.096716805255	420.422995182739	334.939009641396	679.381304962653	301.866938935749	291.022375894790	738.793670543148	195.389980282071	364.568745326067	829.730224910277	429.948060586698	580.504915111799	708.395199095842	383.617236734967	635.214132158807	702.162168934183	274.688539177331	584.953565276789	505.222706329645	196.335570457824	548.216564088805	677.794163038858	157.780164755193	594.202923943525	567.678812479864	141.612913257801	622.675141999062	754.967047790297	53.861062215906	622.369365642876	615.931401645548	37.448962106618	414.329954213287	690.447638110408	34.620180718306	333.708803507431	773.045132869564	96.545084030180	358.914262530341	901.504047469398	47.105674189025	333.366878740518	718.592964025807	1078.146636527439	123.641441191606	841.226435455955	846.058362711345	133.663190069453	684.807072856814	1116.942792848633	709.305095456687	860.045025432483	931.457720132231	673.053286678295	
54	6.461714285714	538.038779967285	1015.745804302085	441.730077460512	726.017387609039	1432.139459058868	243.659629098169	821.930949825297	1370.893745189939	412.167547059678	732.554364805017	1455.916676167941	579.103026388185	719.951759780860	1500.912067647608	391.039761243729	760.261627199290	954.623034806022	566.810175701475	756.111929109694	961.840180670993	293.215040099659	839.941628476639	782.564336579041	549.740713416897	795.233632000928	663.242995113345	624.064516956522	888.723990027931	620.989876552674	551.335520345257	906.995261567963	509.951565668221	576.978783627756	796.328191768369	751.740322502441	321.319829247506	703.066781715464	638.390642949274	268.189450446585	788.013553599644	560.054024912898	329.212875561418	786.376191076774	491.364285113192	340.232649918905	762.326284490832	420.211016484424	335.097246689190	673.491908361044	301.862458816016	290.876309177322	732.349506431316	195.281384433033	364.717093148042	836.310427588602	432.309852832634	579.621766980866	717.192241477631	381.853299292988	635.412162583292	714.242846176435	272.750402825396	585.255744931806	519.873975488362	187.679288772841	550.435726772041	693.988080755107	154.866108268147	594.509201801232	584.878582392004	135.065989887625	624.292998785921	774.866476313798	53.707398295012	621.839643512763	609.107439076453	37.458442238514	414.356399473945	683.677826354263	34.622124615992	333.739539504546	766.285319492883	96.500791664611	359.005372366137	894.742033930066	47.034178446140	333.402840452428	724.093188943383	1078.115874169900	122.755911944961	853.847147300180	849.916401437991	133.350763248305	675.513685074237	1118.202045891934	707.609672236516	835.906595674453	917.773206585684	677.749058173607	
55	6.475142857143	536.728195817516	1016.128663195497	440.637932788590	726.160534570957	1432.247196072493	242.615886954334	821.097546689755	1371.011779881160	411.695832070739	730.938259666897	1456.132967376748	578.155867273071	719.270450172216	1501.140376028449	389.967284791205	758.567824606123	955.223214103981	566.285485927618	755.175041356766	962.007716244592	292.674013570358	839.538531982908	784.743908533650	548.858977728448	796.698393853391	664.972440603337	623.215976552872	890.009175973427	623.743026961116	549.812393512095	910.338616596379	513.732329768776	575.475081074340	793.422135951983	750.943957308276	321.613352155113	699.373712277603	638.462843766590	267.831594286720	783.023732004605	559.351121676819	329.526973265893	780.651686572735	490.902453112909	340.596089411951	756.599876735635	419.974437963242	335.273058836477	667.661109264878	301.830783334313	290.714087338001	725.914921528183	195.149283086283	364.881880043874	842.384096659491	434.358750434252	578.707510831071	725.926267620051	379.348494498344	635.671914023894	726.761617482281	270.152583132936	585.610134627658	535.608703929571	177.595847397879	552.829528891166	711.197794969045	151.349092086123	594.897285119835	603.353853803018	127.512518896629	626.077383131333	796.145414069369	53.427486785898	621.378622427650	602.294661829804	37.453200827784	414.404391318762	676.907750620034	34.622304548508	333.774504271855	759.526923874672	96.448164588409	359.111028690008	887.985531320126	46.951112600185	333.446498267853	729.083314788166	1078.171793538861	122.044340560452	866.344192764801	854.369627259587	133.163356597874	666.610241962109	1119.370021984002	705.852174904092	810.969567081293	905.456062093849	682.749768741365	
56	6.488571428571	535.454590774547	1016.432145180984	439.620049478258	726.366567070683	1432.298243629537	241.769311919110	820.327185939732	1371.003337100901	411.391567632929	729.413736303339	1456.173602603978	577.401251999745	718.665402300138	1501.278493661396	389.115497639321	756.845549100756	955.645603874262	565.865805258652	754.369646903023	962.123742609333	292.189139247773	838.791290485588	786.466947427465	548.077312328905	797.547327965179	666.323272113311	622.391970423162	890.528616682493	625.936094116919	548.279133962650	912.785761138209	517.183945925171	573.940481449154	790.553052259746	750.118460832183	321.991327252243	695.752167414956	638.494840440164	267.487091942983	778.087002248910	558.630725807875	329.847988454797	774.989572927904	490.428528398857	340.955479375215	750.930038683357	419.710373277579	335.456549457170	661.894703074442	301.772002987862	290.533935259120	719.495719528989	194.993110869386	365.058272003884	847.912712134617	436.098298892818	577.789568204330	734.574919525369	376.205568397612	635.975711840206	739.666635950393	267.058395266152	585.992825241689	552.468165970532	166.398532668631	555.272483647330	729.333722642994	147.456673237761	595.335369576607	623.038167048485	119.251324360423	627.926068691009	818.596769981305	53.243295800317	620.989459174631	595.496533175644	37.431657811720	414.470816578087	670.137242936356	34.621142477116	333.811903839144	752.769843572765	96.387861448480	359.228668660458	881.233942270787	46.858895644373	333.496163621454	733.579930794523	1078.275841306581	121.479309383084	878.658903560988	859.407787226079	133.086329038266	658.046988471281	1120.448818718672	704.073381848038	785.522786674519	894.711953160328	688.022551767914	
